<?xml version="1.0" standalone="no"?>
<!DOCTYPE svg PUBLIC "-//W3C//DTD SVG 20010904//EN"
 "http://www.w3.org/TR/2001/REC-SVG-20010904/DTD/svg10.dtd">
<svg version="1.0" xmlns="http://www.w3.org/2000/svg"
 width="540.000000pt" height="540.000000pt" viewBox="0 0 540.000000 540.000000"
 preserveAspectRatio="xMidYMid meet">
<metadata>
Created by potrace 1.11, written by Peter Selinger 2001-2013
</metadata>
<g transform="translate(0.000000,540.000000) scale(0.100000,-0.100000)"
fill="#000000" stroke="none">
<path d="M1023 5189 c-196 -33 -385 -174 -474 -354 -77 -157 -71 -10 -81
-1780 -4 -874 -7 -1750 -5 -1945 3 -338 4 -358 26 -425 36 -112 87 -192 175
-281 90 -90 153 -129 271 -171 l80 -28 1560 0 1560 0 80 28 c118 42 181 81
271 171 88 89 139 169 175 281 22 67 23 87 26 425 2 195 -1 1071 -5 1945 -10
1770 -4 1623 -81 1780 -74 150 -211 269 -380 329 l-86 31 -1530 1 c-841 1
-1553 -2 -1582 -7z m1357 -3144 l0 -165 -720 0 -720 0 0 165 0 165 720 0 720
0 0 -165z m1450 -545 l0 -70 -1445 0 -1445 0 0 70 0 70 1445 0 1445 0 0 -70z
m-1090 -450 l0 -70 -900 0 -900 0 0 70 0 70 900 0 900 0 0 -70z"/>
</g>
</svg>
