<svg xmlns="http://www.w3.org/2000/svg" width="119.664" height="40" viewBox="0 0 119.66407 40"><title>Download_on_the_App_Store_Badge_RU_RGB_wht_100317</title><path d="M110.135 0h-100.6l-1.095.002-.919.013a13.215 13.215 0 0 0-2.004.177 6.665 6.665 0 0 0-1.901.627 6.438 6.438 0 0 0-1.619 1.179 6.258 6.258 0 0 0-1.178 1.621 6.601 6.601 0 0 0-.625 1.903 12.993 12.993 0 0 0-.179 2.002l-.015.921v23.114l.015.922a12.992 12.992 0 0 0 .179 2.002 6.588 6.588 0 0 0 .625 1.904 6.208 6.208 0 0 0 1.178 1.614 6.274 6.274 0 0 0 1.619 1.179 6.701 6.701 0 0 0 1.901.631 13.455 13.455 0 0 0 2.004.177l.919.011 1.095.002h100.6l1.084-.002.922-.011a13.279 13.279 0 0 0 2-.177 6.804 6.804 0 0 0 1.908-.631 6.277 6.277 0 0 0 1.617-1.179 6.395 6.395 0 0 0 1.182-1.614 6.604 6.604 0 0 0 .619-1.904 13.506 13.506 0 0 0 .186-2.002l.004-.922c.008-.363.008-.725.008-1.094v-20.929c0-.366 0-.729-.008-1.092l-.004-.921a13.507 13.507 0 0 0-.186-2.002 6.618 6.618 0 0 0-.619-1.903 6.466 6.466 0 0 0-2.799-2.8 6.768 6.768 0 0 0-1.908-.627 13.044 13.044 0 0 0-2-.177l-.922-.013-1.084-.002z"/><path d="M8.445 39.125l-.904-.011a12.687 12.687 0 0 1-1.869-.163 5.884 5.884 0 0 1-1.657-.548 5.406 5.406 0 0 1-1.397-1.017 5.321 5.321 0 0 1-1.021-1.397 5.722 5.722 0 0 1-.543-1.657 12.414 12.414 0 0 1-.167-1.875l-.015-.913v-23.101l.015-.895a12.37 12.37 0 0 1 .166-1.872 5.755 5.755 0 0 1 .543-1.662 5.373 5.373 0 0 1 1.015-1.398 5.565 5.565 0 0 1 1.402-1.022 5.823 5.823 0 0 1 1.653-.544 12.586 12.586 0 0 1 1.876-.164l.902-.012h102.769l.913.013a12.385 12.385 0 0 1 1.858.163 5.938 5.938 0 0 1 1.671.548 5.594 5.594 0 0 1 2.415 2.42 5.763 5.763 0 0 1 .535 1.649 12.995 12.995 0 0 1 .174 1.887l.003.89c.008.375.008.732.008 1.092v20.929c0 .363 0 .718-.008 1.075l-.004.93a12.731 12.731 0 0 1-.171 1.853 5.739 5.739 0 0 1-.54 1.67 5.48 5.48 0 0 1-1.016 1.386 5.413 5.413 0 0 1-1.399 1.022 5.862 5.862 0 0 1-1.668.55 12.542 12.542 0 0 1-1.869.163l-.897.011-1.084.002z" fill="#fff"/><g><g><path d="M24.997 19.889a5.146 5.146 0 0 1 2.451-4.318 5.268 5.268 0 0 0-4.15-2.244c-1.746-.183-3.439 1.045-4.329 1.045-.907 0-2.277-1.027-3.752-.996a5.527 5.527 0 0 0-4.651 2.837c-2.011 3.482-.511 8.599 1.416 11.414.964 1.378 2.09 2.918 3.564 2.863 1.442-.06 1.981-.92 3.722-.92 1.725 0 2.23.92 3.734.885 1.548-.025 2.523-1.384 3.453-2.776a11.399 11.399 0 0 0 1.579-3.216 4.973 4.973 0 0 1-3.036-4.575z"/><path d="M22.156 11.477a5.067 5.067 0 0 0 1.159-3.63 5.155 5.155 0 0 0-3.336 1.726 4.821 4.821 0 0 0-1.189 3.495 4.263 4.263 0 0 0 3.366-1.591z"/></g><path d="M42.302 27.14h-4.733l-1.137 3.356h-2.005l4.483-12.418h2.083l4.483 12.418h-2.039zm-4.243-1.549h3.752l-1.85-5.447h-.052zM55.159 25.97c0 2.813-1.506 4.621-3.778 4.621a3.069 3.069 0 0 1-2.849-1.584h-.043v4.484h-1.858v-12.049h1.799v1.506h.034a3.212 3.212 0 0 1 2.883-1.601c2.298 0 3.813 1.816 3.813 4.622zm-1.91 0c0-1.833-.947-3.038-2.393-3.038-1.42 0-2.375 1.23-2.375 3.038 0 1.824.955 3.046 2.375 3.046 1.445 0 2.393-1.196 2.393-3.046zM65.125 25.97c0 2.813-1.506 4.621-3.779 4.621a3.069 3.069 0 0 1-2.849-1.584h-.043v4.484h-1.858v-12.049h1.799v1.506h.034a3.212 3.212 0 0 1 2.883-1.601c2.298 0 3.813 1.816 3.813 4.622zm-1.911 0c0-1.833-.947-3.038-2.393-3.038-1.42 0-2.375 1.23-2.375 3.038 0 1.824.955 3.046 2.375 3.046 1.445 0 2.393-1.196 2.393-3.046zM71.709 27.036c.138 1.231 1.334 2.04 2.969 2.04 1.566 0 2.693-.809 2.693-1.919 0-.964-.68-1.541-2.289-1.937l-1.609-.388c-2.28-.551-3.339-1.617-3.339-3.348 0-2.143 1.867-3.614 4.518-3.614 2.625 0 4.424 1.472 4.484 3.614h-1.876c-.112-1.239-1.137-1.987-2.634-1.987s-2.521.757-2.521 1.858c0 .878.654 1.395 2.255 1.79l1.368.336c2.548.603 3.605 1.626 3.605 3.442 0 2.323-1.85 3.778-4.793 3.778-2.754 0-4.613-1.421-4.733-3.667zM83.346 19.3v2.143h1.722v1.472h-1.722v4.991c0 .775.345 1.137 1.102 1.137a5.808 5.808 0 0 0 .611-.043v1.463a5.104 5.104 0 0 1-1.032.086c-1.833 0-2.548-.688-2.548-2.444v-5.189h-1.316v-1.472h1.316v-2.143zM86.064 25.97c0-2.849 1.678-4.639 4.294-4.639 2.625 0 4.295 1.79 4.295 4.639 0 2.856-1.661 4.639-4.295 4.639-2.633 0-4.294-1.782-4.294-4.639zm6.695 0c0-1.954-.896-3.107-2.401-3.107s-2.401 1.162-2.401 3.107c0 1.962.896 3.106 2.401 3.106s2.401-1.145 2.401-3.106zM96.185 21.442h1.772v1.541h.043a2.159 2.159 0 0 1 2.178-1.636 2.866 2.866 0 0 1 .637.069v1.738a2.598 2.598 0 0 0-.835-.112 1.873 1.873 0 0 0-1.937 2.083v5.37h-1.858zM109.383 27.837c-.25 1.644-1.851 2.771-3.898 2.771-2.634 0-4.269-1.765-4.269-4.596 0-2.84 1.644-4.682 4.19-4.682 2.505 0 4.08 1.721 4.08 4.466v.637h-6.395v.112a2.358 2.358 0 0 0 2.436 2.564 2.048 2.048 0 0 0 2.091-1.273zm-6.282-2.702h4.526a2.177 2.177 0 0 0-2.221-2.298 2.292 2.292 0 0 0-2.306 2.298z"/></g><g><path d="M36.738 11.253h.798a1.002 1.002 0 0 0 1.125-.951c0-.55-.414-.906-1.116-.906a1.064 1.064 0 0 0-1.204.935h-.876a1.871 1.871 0 0 1 2.108-1.745c1.175 0 2.002.658 2.002 1.604a1.386 1.386 0 0 1-1.084 1.365v.07a1.39 1.39 0 0 1 1.327 1.443 1.993 1.993 0 0 1-2.229 1.774 1.983 1.983 0 0 1-2.241-1.766h.89c.054.571.578.939 1.352.939s1.278-.414 1.278-.997c0-.591-.476-.956-1.307-.956h-.823zM40.829 13.424c0-.811.604-1.278 1.675-1.344l1.22-.07v-.389c0-.476-.313-.744-.922-.744-.496 0-.839.182-.938.5h-.86c.091-.773.819-1.27 1.841-1.27 1.129 0 1.766.562 1.766 1.513v3.077h-.856v-.633h-.07a1.515 1.515 0 0 1-1.353.707 1.36 1.36 0 0 1-1.501-1.348zm2.895-.385v-.376l-1.1.07c-.62.042-.901.252-.901.649 0 .405.352.641.835.641a1.062 1.062 0 0 0 1.166-.984zM46.968 10.943v3.755h-.889v-4.503h2.965v.748zM54.43 12.444c0 1.431-.724 2.328-1.86 2.328a1.468 1.468 0 0 1-1.386-.756h-.07v2.179h-.889v-6h.855v.744h.066a1.564 1.564 0 0 1 1.414-.819c1.145 0 1.869.893 1.869 2.324zm-.914 0c0-.951-.45-1.526-1.203-1.526-.748 0-1.216.587-1.216 1.53 0 .938.468 1.526 1.212 1.526.757 0 1.207-.575 1.207-1.53zM55.613 16.311v-.765a2.1 2.1 0 0 0 .29.017.77.77 0 0 0 .814-.628l.066-.219-1.63-4.52h.968l1.129 3.577h.07l1.125-3.577h.942l-1.679 4.689c-.385 1.096-.811 1.447-1.729 1.447l-.368-.021zM60.081 13.42h.885c.087.397.459.604.979.604.592 0 .955-.261.955-.666 0-.434-.326-.641-.955-.641h-.674v-.69h.662c.537 0 .811-.207.811-.583 0-.331-.265-.583-.811-.583-.497 0-.86.211-.918.566h-.856a1.578 1.578 0 0 1 1.774-1.319c1.07 0 1.683.484 1.683 1.245a.925.925 0 0 1-.711.922v.07a1.01 1.01 0 0 1 .881 1.013c0 .856-.729 1.422-1.841 1.422-.983 0-1.782-.451-1.864-1.36zM65.066 14.698v-4.503h.881v3.097h.07l2.075-3.097h.881v4.503h-.881v-3.114h-.066l-2.079 3.114zM73.826 10.943h-1.418v3.755h-.89v-3.755h-1.418v-.748h3.726zM78.613 13.482a1.83 1.83 0 0 1-1.952 1.303 2.045 2.045 0 0 1-2.08-2.324 2.077 2.077 0 0 1 2.076-2.353c1.253 0 2.01.856 2.01 2.27v.31h-3.18v.05a1.189 1.189 0 0 0 1.199 1.29 1.079 1.079 0 0 0 1.07-.546zm-3.126-1.451h2.273a1.086 1.086 0 0 0-1.107-1.167 1.15 1.15 0 0 0-1.166 1.166zM82.38 10.195h2.03c.881 0 1.397.446 1.397 1.145a.968.968 0 0 1-.761.951v.07a1.028 1.028 0 0 1 .963 1.038c0 .786-.591 1.298-1.579 1.298h-2.051zm.881.682v1.166h.881c.537 0 .794-.207.794-.587 0-.351-.224-.579-.695-.579zm0 1.819v1.319h1.054c.525 0 .807-.232.807-.658 0-.451-.318-.662-.918-.662z"/></g></svg>