<svg xmlns="http://www.w3.org/2000/svg" width="294.843" height="294.843" viewBox="0, 0, 294.843, 294.843"><path d="M288.843 265.421c-3.313 0-6 2.687-6 6v11.421h-270.843v-39.992h276.842c3.313 0 6-2.687 6-6s-2.687-6-6-6h-282.842c-3.313 0-6 2.687-6 6v51.992c0 3.313 2.687 6 6 6h282.842c3.313 0 6-2.687 6-6v-17.421c.001-3.313-2.686-6-5.999-6zm-145.664-61.956c1.125 1.125 2.651 1.757 4.243 1.757 1.591 0 3.117-.632 4.242-1.757l76.367-76.368c2.344-2.343 2.344-6.142 0-8.485-2.342-2.343-6.143-2.343-8.484 0l-72.125 72.125-72.125-72.125c-2.343-2.343-6.143-2.343-8.485 0-2.343 2.343-2.343 6.142 0 8.485l76.367 76.368zm4.243-32.044c3.313 0 6-2.687 6-6v-159.421c0-3.313-2.687-6-6-6s-6 2.687-6 6v159.421c0 3.314 2.686 6 6 6z" fill="#fff"/></svg>