<svg width="486" height="540" viewBox="0 0 486 540" xmlns="http://www.w3.org/2000/svg"><title>Watch Wireframe</title><desc>Created with Sketch.</desc><g fill="none"><g><rect x="2" y="2" width="459" height="536" rx="90" stroke="#9BA0AA" stroke-width="4" transform="translate(-185 -2985) translate(185 2985)"/><path d="M88.168 20h286.664c37.648 0 67.168 30.454 67.168 68.001l1 363.997c0 37.556-30.517 68.001-68.168 68.001h-286.664c-37.648 0-68.168-30.454-68.168-68.001l1-363.997c0-37.556 29.517-68.001 67.168-68.001z" fill="#000"/></g><path d="M457 307c0-26.086 9.021-23.642 9.021-23.642 1.093-.052 1.979.806 1.979 1.911v135.053c0 .549-.407 1.161-.949 1.319 0 0-9.072 4.872-10.051-19.159v-95.482z" fill="#9BA0AA"/><path d="M483 202h.034c1.36-8.251 2.966-20.423 2.966-34 0-12.074-1.645-23.038-3.017-31.12-.324-6.069-5.341-10.88-11.483-10.88h-11.693999999999999c-7.845 9.518-12.806 25.673-12.806 44s4.377 38.028 12.806 44h11.693999999999999c6.353 0 11.5-5.151 11.5-11.504v-.496z" fill="#9BA0AA"/></g></svg>